<svg width="44" height="35" viewBox="0 0 44 35" fill="none" xmlns="http://www.w3.org/2000/svg">
<path d="M12.2222 30.625C10.2667 30.625 8.31111 29.0938 7.33333 28.4375C2.44444 25.375 0.977778 24.2813 0 23.625V32.8125C0 34.0204 1.09465 35 2.44444 35H22C23.3498 35 24.4444 34.0204 24.4444 32.8125V23.625C23.4667 24.2813 22 25.375 17.1111 28.4375C16.1333 29.0938 14.1778 30.625 12.2222 30.625ZM22 17.5H2.44444C1.09465 17.5 0 18.4796 0 19.6875V20.7812C1.95556 22.0938 1.71111 22.0937 8.8 26.6875C9.53333 27.125 11 28.4375 12.2222 28.4375C13.4444 28.4375 14.9111 27.125 15.6444 26.9063C22.7333 22.3125 22.4889 22.3125 24.4444 21V19.6875C24.4444 18.4796 23.3498 17.5 22 17.5ZM41.5556 10.9375H17.1111C15.7613 10.9375 14.6667 11.9171 14.6667 13.125V15.3125H22C24.5369 15.3125 26.6284 17.0502 26.8667 19.265L26.8889 19.25V28.4375H41.5556C42.9053 28.4375 44 27.4579 44 26.25V13.125C44 11.9171 42.9053 10.9375 41.5556 10.9375ZM39.1111 19.6875H34.2222V15.3125H39.1111V19.6875ZM12.2222 13.125C12.2222 10.7126 14.4153 8.75 17.1111 8.75H34.2222V2.1875C34.2222 0.97959 33.1276 0 31.7778 0H7.33333C5.98354 0 4.88889 0.97959 4.88889 2.1875V15.3125H12.2222V13.125Z" fill="#F4694C"/>
</svg>
