<svg width="33" height="33" viewBox="0 0 33 33" fill="none" xmlns="http://www.w3.org/2000/svg">
<g clip-path="url(#clip0_2_905)">
<path d="M15.2282 32.3342C5.8633 18.7579 4.125 17.3645 4.125 12.375C4.125 5.54045 9.66545 0 16.5 0C23.3345 0 28.875 5.54045 28.875 12.375C28.875 17.3645 27.1367 18.7579 17.7718 32.3342C17.1572 33.222 15.8427 33.2219 15.2282 32.3342ZM16.5 17.5312C19.3477 17.5312 21.6562 15.2227 21.6562 12.375C21.6562 9.52727 19.3477 7.21875 16.5 7.21875C13.6523 7.21875 11.3438 9.52727 11.3438 12.375C11.3438 15.2227 13.6523 17.5312 16.5 17.5312Z" fill="#F4694C"/>
</g>
<defs>
<clipPath id="clip0_2_905">
<rect width="33" height="33" fill="white"/>
</clipPath>
</defs>
</svg>
