<svg width="32" height="33" viewBox="0 0 32 33" fill="none" xmlns="http://www.w3.org/2000/svg">
<path d="M8.11109 32.6755C-2.71174 24.3047 -2.69565 10.7452 8.11109 2.38689C8.58593 2.01963 9.32168 1.95943 9.88301 2.23078L15.2844 4.84197C15.5692 4.97964 15.7824 5.19034 15.8868 5.43726C15.9911 5.68417 15.9799 5.95159 15.8552 6.19278L13.1545 11.4148C13.0391 11.6379 12.8331 11.8259 12.5675 11.9505C12.302 12.0752 11.9912 12.1296 11.6821 12.1057L7.03126 11.7461C5.27701 15.5012 5.31359 19.6397 7.03126 23.3164L11.6822 22.9566C11.9913 22.9327 12.302 22.9872 12.5676 23.1118C12.8332 23.2364 13.0392 23.4244 13.1546 23.6475L15.8553 28.8696C15.98 29.1108 15.9911 29.3782 15.8868 29.6252C15.7825 29.8721 15.5693 30.0828 15.2845 30.2204L9.88309 32.8316C9.60841 32.9644 9.28367 33.0212 8.96185 32.9929C8.64003 32.9645 8.34014 32.8527 8.11109 32.6755V32.6755ZM20.5938 6.15353C21.5798 7.44562 21.5798 9.05443 20.5938 10.3465C20.2647 10.7779 19.5015 10.8595 19.034 10.5129L18.5361 10.1438C18.2102 9.90225 18.1367 9.52365 18.3477 9.21505C18.5507 8.91763 18.6569 8.58637 18.6569 8.25002C18.6569 7.91368 18.5507 7.58242 18.3477 7.285C18.1366 6.9764 18.2102 6.5978 18.5361 6.35623L19.034 5.98717C19.5015 5.64054 20.2647 5.72214 20.5938 6.15353V6.15353ZM28.2428 0.276239C33.2544 4.89134 33.2504 11.6124 28.2428 16.2237C27.8699 16.5671 27.1986 16.5941 26.7801 16.2839L26.2969 15.9257C25.9169 15.644 25.8822 15.1826 26.2194 14.87C30.36 11.0326 30.3566 5.4642 26.2194 1.62995C25.8822 1.31735 25.9168 0.855995 26.2969 0.57427L26.7801 0.216104C27.1986 -0.0941088 27.8699 -0.0671029 28.2428 0.276239V0.276239ZM24.4118 3.17283C27.4159 6.15842 27.4208 10.3367 24.4118 13.3272C24.0459 13.6907 23.3537 13.7301 22.9238 13.4112L22.4389 13.0516C22.0723 12.7797 22.0224 12.3365 22.3318 12.0248C24.5432 9.79706 24.543 6.70279 22.3318 4.47517C22.0224 4.16347 22.0723 3.72036 22.4389 3.44836L22.9238 3.08878C23.3537 2.76993 24.0459 2.80925 24.4118 3.17283V3.17283Z" fill="#F4694C"/>
</svg>
